<svg width="30" height="32" viewBox="0 0 30 32" fill="none" xmlns="http://www.w3.org/2000/svg">
<g id="search-5">
<path id="Shape" fill-rule="evenodd" clip-rule="evenodd" d="M21.2343 20.9956L28.1367 28.2747C28.7207 28.8905 28.7013 29.8723 28.0945 30.4644C27.8089 30.7432 27.4326 30.8965 27.0361 30.8965C26.6171 30.8965 26.2261 30.7277 25.9354 30.4216L18.9805 23.0873C17.0056 24.4945 14.6958 25.2358 12.272 25.2358C5.81546 25.2358 0.5625 19.9095 0.5625 13.363C0.5625 6.81646 5.81546 1.49023 12.272 1.49023C18.7284 1.49023 23.9814 6.81646 23.9814 13.363C23.9814 16.165 23.009 18.8565 21.2343 20.9956ZM20.9269 13.3632C20.9269 8.52423 17.0444 4.58763 12.2721 4.58763C7.49971 4.58763 3.61726 8.52423 3.61726 13.3632C3.61726 18.2021 7.49971 22.1387 12.2721 22.1387C17.0444 22.1387 20.9269 18.2021 20.9269 13.3632Z" fill="#BBC3CF"/>
</g>
</svg>
