<svg width="18" height="19" viewBox="0 0 18 19" fill="none" xmlns="http://www.w3.org/2000/svg">
<path d="M9.00024 9.59594C11.229 9.59594 13.0361 7.4478 13.0361 4.79795C13.0361 1.12334 11.2291 0 9.00024 0C6.77125 0 4.96442 1.12334 4.96442 4.79795C4.96446 7.4478 6.7713 9.59594 9.00024 9.59594Z" fill="white" fill-opacity="0.5"/>
<path d="M17.912 16.6587L15.8758 11.9999C15.7827 11.7867 15.6191 11.6099 15.4155 11.5022L12.2555 9.83141C12.1858 9.79464 12.1015 9.80179 12.0388 9.84996C11.1451 10.5366 10.0942 10.8995 9.00004 10.8995C7.90565 10.8995 6.8549 10.5366 5.96116 9.84996C5.89834 9.80179 5.81396 9.79464 5.74428 9.83141L2.58455 11.5022C2.38083 11.6099 2.2174 11.7866 2.12418 11.9999L0.088054 16.6587C-0.0523244 16.9799 -0.0235536 17.3474 0.16504 17.6419C0.353546 17.9365 0.672575 18.1123 1.01848 18.1123H16.9815C17.3274 18.1123 17.6465 17.9364 17.835 17.6419C18.0235 17.3474 18.0524 16.9797 17.912 16.6587Z" fill="white" fill-opacity="0.5"/>
</svg>
